<svg width="92" height="92" viewBox="0 0 92 92" fill="none" xmlns="http://www.w3.org/2000/svg">
<g clip-path="url(#clip0_892_1466)">
<path d="M77.605 22.8115H11.9853C9.81306 22.8115 8.03906 24.6941 8.03906 27.0293V81.7335H81.5513V27.0293C81.5513 24.6941 79.7773 22.8115 77.605 22.8115Z" fill="white"/>
<path d="M83.4342 83.616H6.13867V27.0291C6.13867 23.6621 8.76346 20.9106 11.9675 20.9106H77.5873C80.8094 20.9106 83.4161 23.644 83.4161 27.0291V83.616H83.4342ZM9.94009 79.8327H79.669V27.0291C79.669 25.7439 78.7458 24.694 77.6235 24.694H11.9856C10.8452 24.694 9.94009 25.7439 9.94009 27.0291V79.8327Z" fill="#00583C"/>
<path d="M81.2074 89.2639H8.79935C5.35997 89.2639 2.57227 84.666 2.57227 81.2266V78.3665H87.4163V81.2266C87.4163 84.666 84.6286 89.2639 81.2074 89.2639Z" fill="white"/>
<path d="M81.2075 91.0921H8.79953C6.60919 91.0921 4.50936 89.8431 2.91638 87.5984C1.55873 85.6977 0.744141 83.3263 0.744141 81.2265V76.5381H89.2448V81.2265C89.2448 83.3082 88.4302 85.6977 87.0907 87.5984C85.4796 89.8612 83.3979 91.0921 81.2075 91.0921ZM4.40074 80.1947V81.2265C4.40074 83.8151 6.60919 87.4355 8.79953 87.4355H81.2075C83.3798 87.4355 85.6063 83.8151 85.6063 81.2265V80.1947H4.40074Z" fill="#00583C"/>
<path d="M79.6508 62.7988V76.5382L65.5312 76.502C71.2877 73.1894 76.2838 68.501 79.6508 62.7988Z" fill="#F2F2F2"/>
<path d="M27.426 76.5383H9.93945V54.8159C12.8539 64.0479 19.1715 71.7775 27.426 76.5383Z" fill="#F2F2F2"/>
<path d="M85.6432 80.1587V81.2448C85.6432 83.6886 83.652 87.3995 81.2082 87.3995H8.80022C6.35645 87.3995 4.36523 83.6886 4.36523 81.2448V80.1587H35.6274C39.103 81.1905 42.7777 81.7336 46.5791 81.7336C50.3805 81.7336 54.0552 81.1905 57.5308 80.1587H85.6432Z" fill="#F2F2F2"/>
<path d="M74.9444 30.2151H15.0449V72.8815H74.9444V30.2151Z" fill="#E0E0E0"/>
<path d="M51.2492 83.8153H38.7226C36.8219 83.8153 35.2832 82.2766 35.2832 80.3759V80.1587H54.6885V80.3759C54.6885 82.2766 53.1499 83.8153 51.2492 83.8153Z" fill="#00583C"/>
<path d="M89.8601 62.0746C89.8601 64.265 88.0861 66.039 85.8958 66.039H56.9507C54.7603 66.039 52.9863 64.265 52.9863 62.0746V6.10325C52.9863 3.91291 54.7603 2.13892 56.9507 2.13892H85.8958C88.0861 2.13892 89.8601 3.91291 89.8601 6.10325V62.0746V62.0746Z" fill="white"/>
<path d="M87.5972 56.119V62.0746C87.5972 63.5227 86.4567 64.6994 85.081 64.6994H57.3125C55.9368 64.6994 54.8145 63.5228 54.8145 62.0927V43.8821C60.3175 51.9737 69.3504 57.2595 79.5599 57.2595C82.3476 57.2595 85.0448 56.8612 87.5972 56.119Z" fill="#F2F2F2"/>
<path d="M86.0775 67.8673H56.3178C53.4577 67.8673 51.1406 65.5503 51.1406 62.6902V5.92229C51.1587 3.06217 53.4758 0.745117 56.3178 0.745117H86.0775C88.9376 0.745117 91.2547 3.06217 91.2547 5.92229V62.7083C91.2547 65.5503 88.9376 67.8673 86.0775 67.8673ZM56.3178 4.40172C55.4851 4.40172 54.7972 5.0896 54.7972 5.92229V62.7083C54.7972 63.541 55.4851 64.2288 56.3178 64.2288H86.0775C86.9102 64.2288 87.5981 63.541 87.5981 62.7083V5.92229C87.5981 5.0896 86.9102 4.40172 86.0775 4.40172H56.3178V4.40172Z" fill="#00583C"/>
<path d="M75.9222 62.6178H66.9255C66.1833 62.6178 65.5859 62.0204 65.5859 61.2783C65.5859 60.5361 66.1833 59.9387 66.9255 59.9387H75.9222C76.6644 59.9387 77.2617 60.5361 77.2617 61.2783C77.2617 62.0204 76.6644 62.6178 75.9222 62.6178Z" fill="#A7A5A6"/>
<path d="M81.371 56.3545H61.2416C59.7572 56.3545 58.5625 55.1598 58.5625 53.6754V14.3397C58.5625 12.8554 59.7572 11.6606 61.2416 11.6606H81.371C82.8554 11.6606 84.0501 12.8554 84.0501 14.3397V53.6935C84.0501 55.1598 82.8554 56.3545 81.371 56.3545Z" fill="#00ABEC"/>
<path d="M81.8239 57.8025H60.8075C58.7801 57.8025 57.1328 56.1552 57.1328 54.1278V13.9052C57.1328 11.8778 58.7801 10.2305 60.8075 10.2305H81.8239C83.8514 10.2305 85.4987 11.8778 85.4987 13.9052V54.1459C85.4987 56.1552 83.8514 57.8025 81.8239 57.8025ZM60.8075 13.0906C60.3731 13.0906 60.011 13.4526 60.011 13.8871V54.1278C60.011 54.5623 60.3731 54.9243 60.8075 54.9243H81.8239C82.2584 54.9243 82.6204 54.5623 82.6204 54.1278V13.9052C82.6204 13.4707 82.2584 13.1087 81.8239 13.1087H60.8075V13.0906Z" fill="#00583C"/>
<path fill-rule="evenodd" clip-rule="evenodd" d="M68.7179 30.541V30.5229L65.8759 27.6809L63.4141 30.1428L66.6362 33.3649L63.4503 36.569L65.8578 38.9947L68.6636 36.1888L71.5057 33.3287L68.7179 30.541Z" fill="white"/>
<path fill-rule="evenodd" clip-rule="evenodd" d="M76.4289 30.541V30.5229L73.5869 27.6809L71.125 30.1428L74.3472 33.3649L71.1612 36.569L73.5688 38.9947L76.3746 36.1888L79.2166 33.3287L76.4289 30.541Z" fill="white"/>
</g>
<defs>
<clipPath id="clip0_892_1466">
<rect width="90.51" height="90.51" fill="white" transform="translate(0.744141 0.745117)"/>
</clipPath>
</defs>
</svg>
