<svg width="92" height="92" viewBox="0 0 92 92" fill="none" xmlns="http://www.w3.org/2000/svg">
<g clip-path="url(#clip0_892_1468)">
<path d="M16.3294 88.069L3.07876 65.7673C2.31848 64.5002 2.73482 62.8529 4.02007 62.0926L14.2115 56.0285C15.4786 55.2682 17.1259 55.6845 17.8862 56.9698L31.155 79.2714C31.9152 80.5386 31.4989 82.1859 30.2137 82.9461L20.0222 89.0103C18.737 89.7706 17.0897 89.3361 16.3294 88.069Z" fill="white"/>
<path d="M18.6644 91.1464C17.1439 91.1464 15.6414 90.368 14.8087 88.956L1.55804 66.6906C0.290895 64.5726 0.996873 61.803 3.11481 60.554L13.27 54.5079C14.3018 53.8924 15.4966 53.7295 16.6551 54.0191C17.8136 54.3088 18.7911 55.051 19.4066 56.0647L32.6573 78.3301C33.2727 79.362 33.4357 80.5567 33.146 81.7152C32.8564 82.8737 32.1142 83.8513 31.1005 84.4667L20.9453 90.5309C20.2212 90.9472 19.4428 91.1464 18.6644 91.1464ZM17.8498 87.1458C18.1033 87.5803 18.6825 87.7251 19.117 87.4717L29.2722 81.4256C29.4894 81.2989 29.6342 81.0997 29.6885 80.8644C29.7429 80.6291 29.7066 80.3757 29.5799 80.1584L16.3293 57.893C16.2026 57.6758 16.0034 57.5309 15.7681 57.4766C15.5328 57.4223 15.2794 57.4585 15.0621 57.5852L4.90691 63.6313C4.47246 63.8847 4.32764 64.464 4.58107 64.8985L17.8498 87.1458Z" fill="#00583C"/>
<path d="M89.3715 58.7256C89.3715 58.7799 89.3715 58.8523 89.3715 58.9066C89.2991 60.5901 88.1768 62.0564 86.5838 62.6176L74.8537 67.6499C71.1609 69.0981 68.2465 70.4919 64.5718 72.4469C62.653 73.4607 61.3496 73.7684 58.3809 74.2571C57.9283 74.3296 55.4484 74.5468 54.9958 74.6011L30.1599 77.4974L28.223 74.239L18.6289 58.2369L30.7935 51.9736C33.6898 50.4711 37.0567 50.091 40.2246 50.8875L57.5301 55.2319C59.5213 55.7388 60.9152 57.5128 60.9152 59.5583C60.9152 60.7893 60.4083 61.9116 59.6118 62.7081C58.7972 63.5227 57.693 64.0114 56.4621 64.0114C58.7972 64.0114 60.8428 62.4003 61.3677 60.1195C61.6031 59.0696 61.6936 58.1464 62.0556 57.7662L71.7764 56.5172C77.6052 55.3043 78.275 55.1957 83.4522 54.0191C84.8641 53.6933 86.3847 53.9829 87.5794 54.9604C88.7742 55.9198 89.3715 57.3137 89.3715 58.7256Z" fill="white"/>
<path d="M30.1594 79.2714C29.5439 79.2714 28.9646 78.9455 28.6388 78.4025L26.7019 75.1441L17.1259 59.1601C16.8725 58.7437 16.8001 58.2369 16.9449 57.7662C17.0716 57.2956 17.3975 56.8973 17.8319 56.6801L29.9964 50.4168C33.291 48.7152 37.0743 48.2808 40.6585 49.1859L57.964 53.5303C59.5027 53.9105 60.7698 54.8337 61.6206 56.0827C61.693 56.0646 61.7474 56.0465 61.8198 56.0465L71.4862 54.7975C72.2827 54.6346 72.9887 54.4897 73.6042 54.363C77.5685 53.5484 78.6365 53.3312 83.0534 52.3356C85.0627 51.8831 87.1083 52.3537 88.6831 53.6209C90.2399 54.8699 91.145 56.7525 91.145 58.7618C91.145 58.8523 91.145 58.9247 91.145 59.0152C91.0545 61.3685 89.4796 63.4864 87.235 64.301L75.5592 69.2972C75.5411 69.2972 75.523 69.3153 75.5049 69.3153C72.156 70.6367 69.3321 71.9582 65.404 74.0218C63.2317 75.1803 61.6749 75.5062 58.67 76.013C58.3442 76.0673 57.5115 76.1397 56.2805 76.2665C55.828 76.3027 55.3392 76.357 55.1944 76.3751L30.3404 79.3076C30.3042 79.2714 30.2318 79.2714 30.1594 79.2714ZM21.1265 58.9609L29.743 73.3339L31.1007 75.5967L54.8143 72.809C54.9953 72.7909 55.3754 72.7547 55.9728 72.7004C56.6426 72.6461 57.8735 72.5193 58.1088 72.4831C61.0233 71.9944 62.1094 71.7409 63.7567 70.854C67.1237 69.08 70.1829 67.5775 74.1834 65.9845L85.8954 60.9703C85.9316 60.9522 85.9678 60.9341 86.004 60.9341C86.9272 60.6082 87.5608 59.7755 87.597 58.8342C87.597 58.798 87.597 58.7618 87.597 58.7256C87.597 57.8024 87.1807 56.9335 86.4566 56.3543C85.7325 55.775 84.7731 55.5578 83.8318 55.775C79.3787 56.7887 78.2021 57.024 74.3101 57.8205C73.6585 57.9472 72.9525 58.1101 72.1198 58.2731C72.0836 58.2912 72.0293 58.2912 71.9931 58.2912L63.3041 59.4135C63.286 59.5221 63.2679 59.6126 63.2498 59.7031C63.1955 59.9566 63.1412 60.2462 63.0688 60.5358C62.3447 63.6313 59.6294 65.8035 56.4435 65.8035C55.466 65.8035 54.6514 65.007 54.6514 64.0295C54.6514 63.052 55.4479 62.2555 56.4254 62.2555C57.1494 62.2555 57.8192 61.984 58.3261 61.459C58.8329 60.9522 59.1045 60.2824 59.1045 59.5583C59.1045 58.3274 58.2718 57.2413 57.077 56.9516L39.7715 52.6071C37.02 51.9193 34.1237 52.2451 31.5894 53.5484L21.1265 58.9609Z" fill="#00583C"/>
<path d="M56.4432 65.8037C56.3346 65.8037 56.226 65.7856 56.1174 65.7675L40.8755 62.9255C39.9161 62.7445 39.2825 61.8213 39.4454 60.8438C39.6265 59.8844 40.5497 59.2508 41.5272 59.4137L56.7691 62.2557C57.7285 62.4367 58.362 63.3599 58.1991 64.3374C58.0362 65.2063 57.294 65.8037 56.4432 65.8037Z" fill="#005738"/>
<path d="M87.597 58.7076C87.597 58.7438 87.597 58.78 87.597 58.8162C87.5608 59.7394 86.9272 60.5902 86.0221 60.916L85.9678 60.9341L74.1834 65.9122C70.1829 67.4871 67.3589 68.9352 63.992 70.7092C62.3447 71.5781 61.0232 71.904 58.1088 72.3927C57.8735 72.4289 56.6426 72.5375 55.9728 72.6099C55.3754 72.6642 54.9953 72.7005 54.8143 72.7186L31.1187 75.5787L29.743 73.2435L21.1445 58.9248L29.1275 54.8157C36.8933 62.69 47.6459 67.5414 59.5932 67.5414C70.1648 67.5414 79.8493 63.7038 87.3254 57.35C87.4884 57.7844 87.597 58.2551 87.597 58.7076Z" fill="#F4F4F4"/>
<path d="M53.0754 34.3242L46.7397 43.3571C46.5406 43.6467 46.7578 44.0631 47.1199 44.045L54.415 43.7916C54.5779 43.7916 54.7408 43.8821 54.8132 44.0269L58.3431 51.2134C58.506 51.5573 58.9948 51.5392 59.1396 51.1953L64.2625 38.7954L53.0754 34.3242Z" fill="#00ABEC"/>
<path d="M58.7236 53.1504C57.9091 53.1504 57.1669 52.6797 56.8048 51.9556L53.637 45.5113L47.1746 45.7285C46.36 45.7647 45.6178 45.3303 45.2196 44.6062C44.8394 43.9002 44.8756 43.0313 45.3463 42.3797L53.0577 31.0659L66.8152 36.5689L60.7149 51.8289C60.389 52.6073 59.6469 53.1142 58.8142 53.1504C58.7599 53.1504 58.7418 53.1504 58.7236 53.1504ZM54.4154 42.09C55.23 42.09 55.9721 42.5607 56.3342 43.2848L58.615 47.9189L62.3984 38.4696L54.3249 35.2475L49.5459 42.253L54.343 42.09C54.3611 42.09 54.3792 42.09 54.4154 42.09Z" fill="#00583C"/>
<path d="M78.564 34.3242L84.8997 43.3571C85.0988 43.6467 84.8816 44.0631 84.5195 44.045L77.2244 43.7916C77.0615 43.7916 76.8986 43.8821 76.8262 44.0269L73.2963 51.2134C73.1334 51.5573 72.6446 51.5392 72.4998 51.1953L67.377 38.7954L78.564 34.3242Z" fill="#00ABEC"/>
<path d="M72.9153 53.1504C72.8972 53.1504 72.861 53.1504 72.8429 53.1504C72.0102 53.1323 71.2499 52.6073 70.9422 51.8289V51.8108L64.8418 36.5689L78.5993 31.0659L86.3108 42.3797C86.7633 43.0494 86.8176 43.9002 86.4375 44.6062C86.0573 45.3303 85.2971 45.7466 84.4825 45.7285L78.0201 45.5113L74.8522 51.9556C74.4721 52.6978 73.7299 53.1504 72.9153 53.1504ZM69.2587 38.4696L73.042 47.9189L75.3229 43.2848C75.6849 42.5245 76.4814 42.0538 77.3141 42.09L82.1111 42.253L77.3322 35.2475L69.2587 38.4696Z" fill="#00583C"/>
<path d="M65.6374 38.5783C75.5649 38.5783 83.6127 30.5305 83.6127 20.603C83.6127 10.6755 75.5649 2.62769 65.6374 2.62769C55.7099 2.62769 47.6621 10.6755 47.6621 20.603C47.6621 30.5305 55.7099 38.5783 65.6374 38.5783Z" fill="#00ABEC"/>
<path d="M65.6378 40.2979C60.3882 40.2979 55.4283 38.2524 51.7174 34.5414C48.0065 30.8305 45.9609 25.8887 45.9609 20.621C45.9609 15.3714 48.0065 10.4115 51.7174 6.70056C55.4283 2.97155 60.3701 0.926025 65.6378 0.926025C70.9055 0.926025 75.8473 2.97155 79.5582 6.68246C83.2692 10.3934 85.3147 15.3352 85.3147 20.6029C85.3147 25.8525 83.2692 30.8124 79.5582 34.5233C75.8292 38.2524 70.8874 40.2979 65.6378 40.2979ZM65.6378 4.3292C56.6592 4.3292 49.3641 11.6243 49.3641 20.6029C49.3641 29.5815 56.6592 36.8766 65.6378 36.8766C74.6164 36.8766 81.9115 29.5815 81.9115 20.6029C81.9115 11.6243 74.5983 4.3292 65.6378 4.3292Z" fill="#00583C"/>
<path d="M62.8677 29.5272C62.4152 29.5272 61.9807 29.3462 61.6549 29.0204L55.8441 23.2096C55.1744 22.5398 55.1744 21.4718 55.8441 20.802C56.5139 20.1323 57.5819 20.1323 58.2517 20.802L62.7048 25.2551L72.8419 12.3484C73.4212 11.6062 74.4892 11.4795 75.2314 12.0588C75.9736 12.638 76.1003 13.7061 75.521 14.4482L64.2073 28.8755C63.8995 29.2557 63.447 29.491 62.9763 29.5272C62.9401 29.5272 62.9039 29.5272 62.8677 29.5272Z" fill="white"/>
</g>
<defs>
<clipPath id="clip0_892_1468">
<rect width="90.51" height="90.51" fill="white" transform="translate(0.744141 0.745117)"/>
</clipPath>
</defs>
</svg>
