<svg width="92" height="92" viewBox="0 0 92 92" fill="none" xmlns="http://www.w3.org/2000/svg">
<g clip-path="url(#clip0_892_1465)">
<path d="M82.8368 41.6737C82.8368 52.4444 78.1665 62.7987 70.0025 70.13L69.568 77.1536C69.4232 81.5705 65.8209 85.0461 61.3678 85.0461C57.6388 85.0461 54.4528 82.5842 53.4753 79.0543C49.9997 79.9775 46.3974 80.4663 42.7589 80.4663C39.1204 80.4663 35.5362 79.9956 32.0426 79.0543C31.0651 82.5661 27.8791 85.0461 24.1501 85.0461C19.7151 85.0461 16.1128 81.5705 15.9499 77.1355L15.5154 70.13C7.36953 62.7987 2.69922 52.4444 2.69922 41.6737C2.69922 35.157 4.40081 28.7308 7.62296 23.0467C6.31962 21.4357 3.31469 16.6024 5.72225 8.22119C5.95758 7.3885 6.48254 6.68252 7.20662 6.21187C9.90382 4.45598 19.0634 -0.59448 25.2905 6.75493C30.7573 4.18445 36.6405 2.8811 42.777 2.8811C48.9136 2.8811 54.7787 4.18445 60.2636 6.75493C66.4726 -0.59448 75.6322 4.45598 78.3475 6.21187C79.0716 6.68252 79.5965 7.3885 79.8318 8.22119C80.9723 12.1674 81.0628 15.7878 80.0853 18.9376C79.4698 20.9469 78.5466 22.3045 77.9492 23.0286C81.1533 28.7308 82.8368 35.157 82.8368 41.6737Z" fill="white"/>
<path d="M61.3684 86.802C59.1599 86.802 57.0601 86.0961 55.3223 84.7565C54.0551 83.779 53.0595 82.5481 52.3717 81.1361C49.24 81.8421 45.9998 82.2041 42.7776 82.2041C39.5554 82.2041 36.3152 81.8421 33.1835 81.1361C32.5138 82.5481 31.5182 83.779 30.2329 84.7565C28.477 86.0961 26.3953 86.802 24.1687 86.802C18.7744 86.802 14.3937 82.5843 14.1945 77.1899L13.8144 70.9266C5.6142 63.3238 0.925781 52.6979 0.925781 41.6738C0.925781 35.2476 2.51876 28.8756 5.52369 23.1916C4.81771 22.1055 4.05743 20.603 3.55057 18.6118C2.73598 15.3172 2.8808 11.6606 4.02122 7.75061C4.38326 6.51968 5.17975 5.45166 6.24777 4.74568C7.80454 3.73197 10.9543 1.93987 14.6471 1.3425C18.9735 0.618424 22.793 1.75885 25.7255 4.63707C31.1018 2.28381 36.822 1.10718 42.7776 1.10718C48.7332 1.10718 54.4534 2.28381 59.8297 4.61897C62.7622 1.74075 66.5636 0.600322 70.9081 1.3244C74.5828 1.92177 77.7507 3.71387 79.3074 4.72758C80.3936 5.43356 81.1719 6.50157 81.534 7.73251C82.7649 12.0227 82.8554 15.9689 81.7693 19.4807C81.2806 21.0556 80.6289 22.2865 80.0315 23.1916C83.0364 28.8756 84.6294 35.2476 84.6294 41.6738C84.6294 52.6979 79.941 63.3238 71.7408 70.9447L71.3607 77.2261C71.1434 82.6024 66.7628 86.802 61.3684 86.802ZM54.7249 76.8822L55.1956 78.5837C55.5757 79.9414 56.3541 81.0999 57.4764 81.9507C58.5987 82.8015 59.9564 83.2541 61.3684 83.2541C64.8439 83.2541 67.6679 80.5388 67.7946 77.0813V77.027L68.2652 69.2793L68.8083 68.7906C76.5921 61.8032 81.0633 51.9195 81.0633 41.6557C81.0633 35.4648 79.4341 29.3282 76.3749 23.9157L75.7775 22.8477L76.5559 21.9064C76.9904 21.3633 77.8231 20.2048 78.3661 18.4127C79.235 15.5888 79.1626 12.3123 78.1127 8.71002C77.986 8.29367 77.7326 7.93163 77.3524 7.69631C76.2844 7.00843 73.4786 5.34305 70.3107 4.81809C66.7084 4.22072 63.8664 5.23443 61.6037 7.89543L60.7167 8.92724L59.4857 8.34798C54.2543 5.88611 48.6246 4.63707 42.7595 4.63707C36.8945 4.63707 31.2647 5.88611 26.0333 8.34798L24.8023 8.92724L23.9153 7.89543C21.6526 5.21633 18.8106 4.22072 15.2083 4.81809C12.0404 5.34305 9.2346 7.00843 8.16658 7.69631C7.80454 7.93163 7.53301 8.29367 7.4063 8.71002C5.23406 16.2042 7.78644 20.4401 8.98117 21.9064L9.74145 22.8477L9.14409 23.8976C6.08485 29.3101 4.45567 35.4467 4.45567 41.6376C4.45567 51.9014 8.92686 61.7851 16.7107 68.7725L17.2538 69.2612L17.7425 77.027C17.8693 80.5026 20.6751 83.236 24.1687 83.236C25.5988 83.236 26.9384 82.7834 28.0607 81.9326C29.183 81.0818 29.9614 79.9233 30.3415 78.5656L30.8122 76.8641L32.5138 77.3166C35.8445 78.2036 39.2839 78.6561 42.7595 78.6561C46.2351 78.6561 49.6745 78.2036 53.0052 77.3166L54.7249 76.8822Z" fill="#00553A"/>
<path d="M30.9756 40.5333C28.912 40.5333 27.2285 38.8498 27.2285 36.7862C27.2285 34.7226 28.912 33.0391 30.9756 33.0391C33.0393 33.0391 34.7227 34.7226 34.7227 36.7862C34.7227 38.8498 33.0393 40.5333 30.9756 40.5333Z" fill="#A8A6A7"/>
<path d="M54.4541 40.5333C52.3905 40.5333 50.707 38.8498 50.707 36.7862C50.707 34.7226 52.3905 33.0391 54.4541 33.0391C56.5178 33.0391 58.2013 34.7226 58.2013 36.7862C58.2013 38.8498 56.5178 40.5333 54.4541 40.5333Z" fill="#A8A6A7"/>
<path d="M42.777 42.1445C48.8411 42.1445 53.7649 46.127 53.7649 51.0326C53.7649 55.9383 48.8411 59.0337 42.777 59.0337C36.7128 59.0337 31.7891 55.9202 31.7891 51.0145C31.7891 46.1089 36.6947 42.1445 42.777 42.1445Z" fill="#A8A6A7"/>
<path d="M39.3199 52.8607C40.4296 52.8607 41.3292 51.9611 41.3292 50.8514C41.3292 49.7416 40.4296 48.842 39.3199 48.842C38.2102 48.842 37.3105 49.7416 37.3105 50.8514C37.3105 51.9611 38.2102 52.8607 39.3199 52.8607Z" fill="white"/>
<path d="M46.2164 52.8607C47.3261 52.8607 48.2257 51.9611 48.2257 50.8514C48.2257 49.7416 47.3261 48.842 46.2164 48.842C45.1066 48.842 44.207 49.7416 44.207 50.8514C44.207 51.9611 45.1066 52.8607 46.2164 52.8607Z" fill="white"/>
<path d="M76.6836 58.4181C74.6743 62.2195 71.9771 65.6951 68.6825 68.6457L68.0851 69.1888L67.5964 77.0089V77.0632C67.4878 80.4301 64.7363 83.0549 61.3693 83.0549C58.5816 83.0549 56.1197 81.1904 55.3775 78.5113L54.8526 76.6287L52.97 77.1356C49.6573 78.0226 46.2179 78.4751 42.7785 78.4751C39.3392 78.4751 35.8998 78.0226 32.569 77.1356L30.6864 76.6287L30.1614 78.5113C29.4012 81.2266 26.9936 83.0549 24.1697 83.0549C20.7846 83.0549 18.0512 80.412 17.9426 77.027L17.4538 69.1707L16.8565 68.6276C9.10882 61.6765 4.67383 51.8471 4.67383 41.6376C4.67383 41.366 4.67383 41.1126 4.69193 40.8411C14.2317 55.7028 30.9217 65.5684 49.8926 65.5684C59.6496 65.5865 68.8092 62.9798 76.6836 58.4181Z" fill="#F4F4F4"/>
<path d="M12.6019 19.0646C11.914 18.2138 11.5339 17.2363 11.371 16.1683C11.1537 14.7563 11.3529 13.3806 11.733 12.0229C11.7873 11.8057 11.9321 11.6247 12.1132 11.5161C13.2717 10.7739 14.4845 10.2127 15.8422 9.99548C17.236 9.76016 18.5394 9.97738 19.6617 10.8825C19.9875 11.1359 20.2591 11.4436 20.5306 11.7514C20.5125 11.8057 20.4582 11.8057 20.422 11.8419C18.5213 12.8375 16.7835 14.1408 15.2629 15.7157C14.3035 16.6932 13.4527 17.7793 12.7105 18.9379C12.6743 18.9741 12.6562 19.0284 12.6019 19.0646Z" fill="#E1E1E1"/>
<path d="M72.3017 18.2499C72.9896 17.3991 73.3697 16.4216 73.5327 15.3536C73.7499 13.9416 73.5508 12.5659 73.1706 11.2082C73.1163 10.991 72.9715 10.81 72.7905 10.7014C71.6319 9.95917 70.4191 9.39801 69.0615 9.18078C67.6676 8.94546 66.3643 9.16268 65.2419 10.0678C64.9161 10.3212 64.6446 10.6289 64.373 10.9367C64.3911 10.991 64.4455 10.991 64.4817 11.0272C66.4186 12.059 68.1564 13.3623 69.6769 14.9191C70.6363 15.8966 71.4871 16.9827 72.2293 18.1413C72.2293 18.1413 72.2474 18.2137 72.3017 18.2499Z" fill="#E1E1E1"/>
<path d="M70.528 89.1012C80.8654 89.1012 89.2455 80.7211 89.2455 70.3837C89.2455 60.0464 80.8654 51.6663 70.528 51.6663C60.1906 51.6663 51.8105 60.0464 51.8105 70.3837C51.8105 80.7211 60.1906 89.1012 70.528 89.1012Z" fill="#00ABEC"/>
<path d="M70.5271 90.8751C65.0603 90.8751 59.9013 88.7391 56.0274 84.8652C52.1536 80.9914 50.0176 75.8504 50.0176 70.3655C50.0176 64.8806 52.1536 59.7397 56.0274 55.8658C59.9013 51.992 65.0422 49.856 70.5271 49.856C76.012 49.856 81.153 51.992 85.0268 55.8658C88.9007 59.7397 91.0367 64.8806 91.0367 70.3655C91.0367 75.8504 88.9007 80.9914 85.0268 84.8652C81.153 88.7391 76.012 90.8751 70.5271 90.8751ZM70.5271 53.4402C61.1865 53.4402 53.5837 61.043 53.5837 70.3836C53.5837 79.7243 61.1865 87.3271 70.5271 87.3271C79.8678 87.3271 87.4706 79.7243 87.4706 70.3836C87.4706 61.043 79.8678 53.4402 70.5271 53.4402Z" fill="#00553A"/>
<path d="M67.8305 79.67C67.3599 79.67 66.9073 79.4889 66.5815 79.145L60.5354 73.0989C59.8476 72.4111 59.8476 71.2887 60.5354 70.5827C61.2233 69.8949 62.3456 69.8949 63.0516 70.5827L67.6857 75.2169L78.2392 61.7671C78.8366 60.9887 79.9589 60.862 80.7373 61.4593C81.5157 62.0567 81.6424 63.179 81.045 63.9574L69.2606 78.9821C68.9529 79.3803 68.4822 79.6337 67.9754 79.6518C67.903 79.67 67.8668 79.67 67.8305 79.67Z" fill="white"/>
</g>
<defs>
<clipPath id="clip0_892_1465">
<rect width="90.51" height="90.51" fill="white" transform="translate(0.744141 0.745117)"/>
</clipPath>
</defs>
</svg>
